<svg width="18" height="19" viewBox="0 0 18 19" fill="none" xmlns="http://www.w3.org/2000/svg">
<path d="M7.96031 13.8467L8.61851 12.3391C9.20434 10.9975 10.2587 9.92945 11.5739 9.34565L13.3857 8.54143C13.9617 8.28575 13.9617 7.44776 13.3857 7.19208L11.6304 6.41296C10.2814 5.81414 9.20816 4.70661 8.63239 3.31921L7.96564 1.71255C7.71821 1.11632 6.8944 1.11633 6.64699 1.71255L5.98021 3.31919C5.40444 4.70661 4.33116 5.81414 2.98215 6.41296L1.22695 7.19208C0.650914 7.44776 0.650913 8.28575 1.22695 8.54143L3.03874 9.34565C4.35393 9.92945 5.40829 10.9975 5.99407 12.3391L6.65231 13.8467C6.90533 14.4262 7.70726 14.4262 7.96031 13.8467ZM14.5506 17.5174L14.7357 17.0932C15.0657 16.3367 15.66 15.7344 16.4016 15.4049L16.9719 15.1515C17.2804 15.0144 17.2804 14.5662 16.9719 14.4292L16.4336 14.1899C15.6729 13.852 15.0678 13.2274 14.7435 12.4452L14.5534 11.9867C14.4209 11.6672 13.9791 11.6672 13.8466 11.9867L13.6566 12.4452C13.3323 13.2274 12.7272 13.852 11.9665 14.1899L11.4281 14.4292C11.1197 14.5662 11.1197 15.0144 11.4281 15.1515L11.9984 15.4049C12.7401 15.7344 13.3344 16.3367 13.6644 17.0932L13.8495 17.5174C13.985 17.828 14.415 17.828 14.5506 17.5174Z" fill="#F3A200"/>
</svg>
