<svg width="33" height="28" viewBox="0 0 33 28" fill="none" xmlns="http://www.w3.org/2000/svg">
<path d="M23 18.42V21.9561C23 22.4811 22.5941 22.9167 22.0705 22.9537C21.6331 22.9846 21.2763 23 21 23C12.1634 23 5 15.8366 5 7C5 6.72371 5.01545 6.36687 5.04635 5.9295C5.08337 5.40588 5.51894 5 6.04386 5H9.5801C9.83678 5 10.0518 5.19442 10.0775 5.4498C10.1007 5.67907 10.1222 5.86314 10.1421 6.00202C10.3443 7.41472 10.7575 8.75936 11.3487 10.003C11.4436 10.2026 11.3817 10.4416 11.2018 10.5701L9.04355 12.1118C10.3575 15.1811 12.8189 17.6425 15.8882 18.9565L17.4271 16.8019C17.5572 16.6199 17.799 16.5573 18.001 16.6532C19.2446 17.2439 20.5891 17.6566 22.0016 17.8584C22.1396 17.8782 22.3225 17.8995 22.5502 17.9225C22.8056 17.9483 23 18.1633 23 18.42Z" fill="#DEDEDE"/>
</svg>
