<svg width="18" height="20" viewBox="0 0 18 20" fill="none" xmlns="http://www.w3.org/2000/svg">
<path d="M17.4001 4.6001C17.3001 4.5001 17.2001 4.5001 17.0001 4.5001C16.7001 4.5001 16.5001 4.5001 16.2001 4.4001C14.5001 4.0001 13.3001 2.7001 13.2001 1.0001V0.600098C13.2001 0.300098 13.0001 0.100098 12.7001 0.100098H9.60007C9.30007 0.100098 9.10007 0.300098 9.10007 0.600098V13.1001C9.10007 14.3001 8.10007 15.2001 7.00007 15.2001C6.30007 15.2001 5.70007 14.9001 5.30007 14.4001C4.60007 13.5001 4.80007 12.1001 5.70007 11.4001C6.10007 11.1001 6.50007 11.1001 7.30007 11.1001C7.40007 11.1001 7.60007 11.1001 7.70007 11.0001C7.80007 10.9001 7.90007 10.8001 7.90007 10.6001V7.3001C7.90007 7.1001 7.70007 6.8001 7.50007 6.8001C5.90007 6.6001 4.30007 7.0001 3.10007 8.0001C2.00007 9.0001 1.20007 10.4001 1.00007 12.1001C0.700067 14.0001 1.40007 16.0001 2.70007 17.3001C3.90007 18.6001 5.60007 19.2001 7.20007 19.2001C8.80007 19.2001 10.4001 18.6001 11.6001 17.4001C12.8001 16.2001 13.5001 14.6001 13.5001 12.9001V7.4001C14.7001 8.0001 16.0001 8.4001 17.3001 8.4001C17.6001 8.4001 17.8001 8.2001 17.8001 7.9001V4.9001C17.6001 4.8001 17.5001 4.7001 17.4001 4.6001Z" fill="#9B9BB7"/>
</svg>
